# xmcd CD database file
#
# Track frame offsets:
#	150
#	107408
#	164469
#
# Disc length: 2757 seconds
#
# Revision: 4
# Processed by: cddbd v1.5.2PL0 Copyright (c) Steve Scherf et al.
# Submitted via: CDex 1.51
#
DISCID=1a0ac303
DTITLE=Alexandre Scriabine - Symphonie N°3  ''Le Divin Poème''  (Michael Gielen, SWR sinfinieorchester Baden-Baden und Freiburg)
DYEAR=1900
DGENRE=Classique
TTITLE0=Symphonie N°3, Op.43  ''Luttes'' - I. Lento allegro
TTITLE1=Symphonie N°3, Op.43  ''Voluptés'' - II. Lento
TTITLE2=Symphonie N°3, Op.43  ''Jeu divin'' - III. Allegro
EXTD=
EXTT0=
EXTT1=
EXTT2=
PLAYORDER=
